<?xml version="1.0" standalone="no"?><!DOCTYPE svg PUBLIC "-//W3C//DTD SVG 1.1//EN" "http://www.w3.org/Graphics/SVG/1.1/DTD/svg11.dtd"><svg t="1764658939183" class="icon" viewBox="0 0 1024 1024" version="1.1" xmlns="http://www.w3.org/2000/svg" p-id="1938" xmlns:xlink="http://www.w3.org/1999/xlink" width="200" height="200"><path d="M624.128 512l145.92-145.92c183.808-183.808 183.808-183.808 183.808-204.288 0-28.16-63.488-91.648-91.648-91.648-20.48 0-20.48 0-204.8 183.808L512 399.872 366.592 254.464c-184.32-184.832-184.832-184.832-208.384-182.272-16.384 1.536-29.184 11.776-51.712 32.256-22.528 20.48-36.352 33.28-36.352 55.808 0 21.504 0 21.504 183.808 205.824L399.872 512l-145.92 145.92c-183.808 183.808-183.808 183.808-183.808 204.288 0 19.456 12.288 32.768 35.328 56.32 21.504 21.504 35.328 35.328 56.32 35.328 20.48 0 20.48 0 204.8-183.808l145.92-145.92 145.408 144.896c184.832 184.832 184.832 184.832 208.896 182.272 16.384-1.536 29.184-11.776 51.712-32.256 23.04-20.48 36.352-33.28 36.352-55.808 0-21.504 0-21.504-183.808-205.824L624.128 512z" p-id="1939" fill="#cdcdcd"></path></svg>