<?xml version="1.0" standalone="no"?><!DOCTYPE svg PUBLIC "-//W3C//DTD SVG 1.1//EN" "http://www.w3.org/Graphics/SVG/1.1/DTD/svg11.dtd"><svg t="1765956785258" class="icon" viewBox="0 0 1436 1024" version="1.1" xmlns="http://www.w3.org/2000/svg" p-id="27133" xmlns:xlink="http://www.w3.org/1999/xlink" width="280.46875" height="200"><path d="M1424.834885 689.418289c-9.762558-74.974735-20.381481-149.863833-30.486586-224.795749-6.337099-46.88597-11.047105-93.986032-25.690942-139.416182C1306.61373 132.781197 1125.321311-2.824163 924.204047 0.044659c-67.781271 0.984819-135.605359 0-203.429448 0h-216.274919a373.332216 373.332216 0 0 0-102.763771 13.402109C210.424022 67.911566 91.474957 192.72673 53.666453 387.635349 29.987968 509.239144 14.530584 632.641306 1.642294 756.086286c-5.009734 47.956426 0.984819 94.885215 24.320759 138.00318C72.806206 980.582307 147.952213 1022.586998 243.693793 1023.957182c94.200123 1.370184 165.663762-42.604147 210.366003-126.014074 29.630221-55.278345 56.691347-111.969692 84.351928-168.275675a18.240569 18.240569 0 0 1 19.268207-12.031925q160.183028 0.599455 320.366056 0c10.490468 0 15.842748 2.697549 20.595572 12.502925 25.048669 51.681613 51.03934 102.763771 76.773101 154.145657 54.207889 108.287324 150.42047 156.329386 269.026989 134.449267a237.17022 237.17022 0 0 0 188.999702-194.65171c7.2791-45.901151-2.783185-90.132391-8.606466-134.663358z m-180.436055 223.55402a150.506106 150.506106 0 0 1-55.107072 10.362014c-50.78243-2.012457-90.560573-25.434033-114.667241-73.005096q-50.439884-99.466767-99.680858-199.575807c-11.817834-23.935395-29.544584-35.581956-56.86262-35.453501q-198.590987 0.770728-397.181974 0c-27.018308 0-44.102785 10.661741-55.663709 34.254591Q416.080019 748.507458 366.068317 847.417587c-28.43131 56.520074-74.161188 81.782834-136.761452 75.488553-56.86262-5.566371-105.761048-47.956426-121.389704-103.234771-8.563648-29.673039-0.942001-58.232804 2.783185-86.963841 10.833014-83.409927 22.950576-166.648582 34.040499-250.015691C154.160857 412.512745 162.210686 342.16238 201.517829 280.332845c72.277186-113.72524 174.998138-175.255048 310.132497-177.139051 136.119178-1.884002 272.281175-0.770728 408.400352-0.342545 179.151507 0.513819 325.418608 126.228165 356.290558 303.024669 21.62321 123.701889 39.521234 247.960416 56.006255 372.51867 6.337099 47.656699-19.567935 106.874322-87.948661 134.406448z" fill="#ffffff" p-id="27134"></path><path d="M567.999127 307.864972c-14.386928-0.299728-28.816674-0.556637-43.203602 0-8.563648 0.385364-12.203198-1.755548-11.646561-11.218379 0.813547-14.34411 0.428182-28.773856 0-43.160784-0.599455-28.987947-20.552754-48.127699-50.182975-48.34179-31.043222 0-51.381885 18.454661-52.195432 47.827972-0.342546 14.386928-0.556637 28.816674 0 43.203602 0.428182 8.563648-1.627093 12.246016-11.132742 11.732197-14.34411-0.856365-28.816674-0.428182-43.203602 0-28.816674 0.428182-47.913608 20.467118-48.127699 50.05452 0 31.043222 18.411842 51.381885 47.785153 52.281068 13.873109 0.342546 27.746218 0.642274 41.576509 0 9.933831-0.556637 14.258473 1.669911 13.402109 12.845472a414.566179 414.566179 0 0 0 0 43.160783 47.100062 47.100062 0 0 0 40.463235 46.457789c27.403672 4.281824 49.754792-7.578828 58.746622-30.358131 4.966916-12.460107 2.355003-25.26276 3.211368-36.309866 0-8.563648 0.556637-15.54302 0-22.393938-1.070456-10.019468 1.71273-14.215655 12.845471-13.35929 13.787473 1.070456 27.7034 0.471001 41.576509 0 28.987947-0.599455 48.127699-20.595572 48.341791-50.140157-0.171273-31.043222-18.882843-51.595977-48.256154-52.281068zM973.916022 307.822153c31.471405 0 51.724431-19.139752 52.066977-49.711974 0.385364-32.370588-19.011298-52.666433-50.482703-52.837705s-51.724431 19.054116-52.024159 49.669156c-0.342546 32.413406 18.968479 52.666433 50.439885 52.880523zM873.207526 307.822153c-32.242133-0.256909-52.23825 19.225389-52.281068 50.996522s19.43948 51.381885 50.225793 51.381885c32.199315 0.214091 52.23825-19.353844 52.281068-51.03934s-19.43948-51.124976-50.225793-51.339067zM1078.135613 307.822153c-31.59986 0-51.810068 18.968479-52.152614 49.540702-0.342546 32.32777 18.797206 52.752069 50.354248 52.96616s51.810068-19.096934 52.152613-49.58352c0.428182-32.413406-18.925661-52.752069-50.354247-52.923342zM974.943659 410.329015c-31.300132 0-51.381885 19.396662-51.381885 50.182975 0 31.642678 18.925661 51.938523 49.369428 52.323886 32.499043 0.428182 52.923342-18.882843 53.137433-50.225793 0.128455-32.199315-19.396662-52.23825-51.124976-52.281068z" fill="#ffffff" p-id="27135"></path></svg>