<?xml version="1.0" standalone="no"?><!DOCTYPE svg PUBLIC "-//W3C//DTD SVG 1.1//EN" "http://www.w3.org/Graphics/SVG/1.1/DTD/svg11.dtd"><svg t="1765950952860" class="icon" viewBox="0 0 1024 1024" version="1.1" xmlns="http://www.w3.org/2000/svg" p-id="8266" xmlns:xlink="http://www.w3.org/1999/xlink" width="200" height="200"><path d="M652.0768 511.2l-92.9152 0.0256V409.312c0-9.3696-7.5968-16.9792-16.9792-16.9792H474.25280000000004c-9.3888 0-16.9792 7.6096-16.9792 16.9792v102.048l-93.7344 0.4736c-3.3024 0.0064-5.9328 1.9008-7.1104 4.5696-0.0192 0.0448-0.0576 0.0832-0.0832 0.1344-0.2112 0.512-0.2688 1.0688-0.3648 1.632-0.096 0.512-0.2176 1.0048-0.1984 1.5424 0 0.1152-0.0512 0.2112-0.0448 0.3328 0.0256 0.3136 0.1984 0.576 0.2624 0.8768 0.128 0.672 0.2816 1.3248 0.5888 1.984 0.1472 0.3136 0.3392 0.576 0.5248 0.8704 0.288 0.4736 0.48 0.9856 0.8704 1.4336l140.3072 156.8c0.3008 0.3456 0.6912 0.5312 1.024 0.8192 0.1856 0.1792 0.2688 0.4224 0.48 0.5888 0.1856 0.1408 0.4224 0.1664 0.6272 0.2944 0.5568 0.352 1.1264 0.5888 1.728 0.8064 0.2048 0.064 0.3904 0.1536 0.5952 0.1984 2.4448 0.7168 5.0304 0.4992 6.9504-1.0496 0.4544-0.3712 0.704-0.8768 1.0368-1.3312 0.2368-0.2048 0.5184-0.3264 0.736-0.5632L657.536 525.12c0.448-0.4864 0.6784-1.0432 0.9984-1.5744 0.16-0.2368 0.3264-0.4544 0.4544-0.7104 0.3136-0.6464 0.4672-1.2928 0.5952-1.9584 0.0576-0.2944 0.224-0.5312 0.2496-0.8384v-0.512c0-0.1024 0-0.1856 0-0.2816C660.1344 514.8096 656.6912 511.2128 652.0768 511.2zM474.2528 375.3472h67.92960000000001c9.3888 0 16.9792-7.6096 16.9792-16.9792v-16.9856c0-9.3696-7.5968-16.9792-16.9792-16.9792H474.25280000000004c-9.3888 0-16.9792 7.6096-16.9792 16.9792v16.9856C457.2736 367.7312 464.864 375.3472 474.2528 375.3472zM508.2176 137.6c-206.336 0-373.6 167.264-373.6 373.6 0 206.336 167.264 373.6 373.6 373.6 206.336 0 373.6-167.264 373.6-373.6C881.8176 304.864 714.5536 137.6 508.2176 137.6zM508.2176 816.8768c-168.8256 0-305.6704-136.8512-305.6704-305.6768 0-168.8064 136.8448-305.6704 305.6704-305.6704s305.6704 136.864 305.6704 305.6704C813.888 680.0256 677.0432 816.8768 508.2176 816.8768z" p-id="8267" fill="#ffffff"></path></svg>