<?xml version="1.0" standalone="no"?><!DOCTYPE svg PUBLIC "-//W3C//DTD SVG 1.1//EN" "http://www.w3.org/Graphics/SVG/1.1/DTD/svg11.dtd"><svg t="1765763501706" class="icon" viewBox="0 0 1024 1024" version="1.1" xmlns="http://www.w3.org/2000/svg" p-id="11871" xmlns:xlink="http://www.w3.org/1999/xlink" width="200" height="200"><path d="M270.246 409.136c-21.376 0-38.686 17.434-38.686 38.882 0 21.454 17.31 38.894 38.686 38.894 21.282 0 38.594-17.442 38.594-38.894C308.84 426.57 291.528 409.136 270.246 409.136zM932.558 497.732c-42.314-176.942-87.262-270.978-176.908-297.66C736.12 194.27 719.496 192 704.152 192c-55.196 0-93.876 29.366-192.16 29.366-98.348 0-137.004-29.362-192.124-29.366-15.33 0-31.926 2.27-51.442 8.072-89.738 26.682-134.684 120.718-176.922 297.66-42.362 176.946-34.668 304.726 15.358 328.578C115.004 830.2 123.324 832 131.77 832c43.388 0 90.278-47.676 135.318-104.094C318.396 663.696 331.316 662 487.644 662l48.686 0c156.294 0 169.256 1.692 220.564 65.906 45.052 56.414 91.94 104.008 135.33 104.008 8.452 0 16.768-1.758 24.914-5.646C967.148 802.416 974.842 674.678 932.558 497.732zM270.468 527.266C227.188 527.266 192 491.75 192 448.02c0-43.68 35.188-79.286 78.468-79.286 43.31 0 78.498 35.606 78.498 79.286C348.966 491.75 313.78 527.266 270.468 527.266zM616.152 488.28c-22.116 0-40.152-18.038-40.152-40.214 0-22.18 18.038-40.208 40.152-40.208 22.262 0 40.296 18.028 40.296 40.208C656.45 470.242 638.414 488.28 616.152 488.28zM703.976 576c-22.116 0-40.106-17.902-40.106-40.032 0-22.314 17.99-40.212 40.106-40.212 22.292 0 40.296 17.898 40.296 40.212C744.274 558.098 726.268 576 703.976 576zM703.976 400.38c-22.116 0-40.106-17.986-40.106-40.166 0-22.188 17.99-40.214 40.106-40.214 22.292 0 40.296 18.028 40.296 40.214C744.274 382.394 726.268 400.38 703.976 400.38zM791.894 488.28c-22.21 0-40.202-18.038-40.202-40.214 0-22.18 17.99-40.208 40.202-40.208 22.118 0 40.106 18.028 40.106 40.208C832 470.242 814.012 488.28 791.894 488.28z" fill="#2c2c2c" p-id="11872"></path></svg>