<?xml version="1.0" standalone="no"?><!DOCTYPE svg PUBLIC "-//W3C//DTD SVG 1.1//EN" "http://www.w3.org/Graphics/SVG/1.1/DTD/svg11.dtd"><svg t="1765956691896" class="icon" viewBox="0 0 1024 1024" version="1.1" xmlns="http://www.w3.org/2000/svg" p-id="19294" xmlns:xlink="http://www.w3.org/1999/xlink" width="200" height="200"><path d="M860.992 677.248a23.04 23.04 0 0 1-23.104 22.976H186.112a23.04 23.04 0 0 1-23.04-22.976V266.496a23.04 23.04 0 0 1 23.04-22.976h651.776c12.8 0 23.04 10.24 23.04 22.976v410.752z m-57.792 128.576h-23.104l18.496-55.104h23.04l-18.432 55.04z m-64.704 0l18.496-55.104h23.04l-18.432 55.04h-23.104z m-41.6 0l18.496-55.104h23.04l-18.432 55.04h-23.104zM132.992 176.896A36.864 36.864 0 0 0 96 213.632v596.736c0 20.288 16.576 36.736 36.992 36.736h758.016c20.48 0 36.992-16.448 36.992-36.736V213.632a36.864 36.864 0 0 0-36.992-36.736H132.992z" fill="#2c2c2c" p-id="19295"></path></svg>