<?xml version="1.0" standalone="no"?><!DOCTYPE svg PUBLIC "-//W3C//DTD SVG 1.1//EN" "http://www.w3.org/Graphics/SVG/1.1/DTD/svg11.dtd"><svg t="1765951043801" class="icon" viewBox="0 0 1024 1024" version="1.1" xmlns="http://www.w3.org/2000/svg" p-id="13356" xmlns:xlink="http://www.w3.org/1999/xlink" width="200" height="200"><path d="M440.897104 491.25963l17.383926 17.383926c19.441794-24.551162 44.066635-54.307883 73.880661-89.26607C489.824443 451.421296 459.403596 475.385081 440.897104 491.25963L440.897104 491.25963zM933.744905 609.573269c30.54876-34.192753 30.0412-69.246107-1.5104-105.144712L502.532883 75.874061c-6.698562-5.308913-14.066367-9.612938-22.097274-12.914124-2.00261-0.654916-5.346775-1.139963-10.020214-1.450025-4.674463-0.310062-7.680936-0.468674-9.016351-0.459464L130.919237 62.649875c-7.345292 0.033769-15.346523 1.412163-24.013927 4.121877-8.665357 2.712785-16.316617 7.758708-22.959921 15.136745-7.30743 7.380084-11.778254 15.074324-13.407358 23.096021-1.629103 8.017604-3.096525 16.367783-4.384867 25.057699 0.004093 0.667196-0.332575 1.00284-1.000793 1.007957-0.391926 57.416687-0.804319 109.494787-1.246387 156.232251 0.098237 20.034289 0.025583 39.727817-0.212848 59.084677-0.242524 19.365046-0.323365 36.728506-0.251733 52.082192l0.196475 40.055275 0.097214 20.033265c0.047072 10.013051 2.591011 18.510586 7.635911 25.498744 5.03569 6.984065 8.566096 11.80793 10.580986 14.470573 0.677429 1.331321 7.554046 8.477069 20.634969 21.433148 13.077853 12.951987 29.859052 29.727045 50.318012 50.331315 20.464077 20.599154 43.776016 43.848671 69.938885 69.764923l80.505545 79.726809c63.736627 63.787792 136.194892 135.874597 217.366609 216.269625 10.063193 9.960863 24.108071 15.576767 42.142819 16.819061 18.034748 1.25048 34.032094-3.837398 47.995107-15.253402L933.744905 609.573269 933.744905 609.573269zM215.086172 277.562597c-18.026562 0.084934-33.414017-6.350638-46.161343-19.310811-12.751419-12.95608-19.166525-28.446889-19.255553-46.468334-0.084934-18.026562 6.180769-33.415041 18.808368-46.162366 12.620435-12.747325 27.945469-19.162432 45.976124-19.25146 18.026562-0.084934 33.406854 6.180769 46.158273 18.809391 12.743232 12.620435 19.160385 27.949562 19.24532 45.975101 0.085958 18.021445-6.178723 33.5757-18.799158 46.6556C248.432651 270.888594 233.112734 277.474592 215.086172 277.562597L215.086172 277.562597zM326.78516 477.67831c-9.795087 3.322675-21.551852 2.560312-35.269271-2.275833-13.71742-4.840238-26.731828-13.419637-39.046295-25.733081-13.516852-13.517875-22.49227-27.612894-26.932396-42.288129-4.440126-14.674211-4.177136-27.451212 0.778736-38.327934 4.957919-10.880815 14.716166-23.594371 29.27065-38.148855l12.718673-12.717649 46.902216 46.907333-23.63121 23.632233c-7.27673 7.277754-11.2973 12.615319-12.05864 16.013719-0.757247 3.402493 0.540306 6.779404 3.900843 10.135848 3.360538 3.360538 7.18054 4.538363 11.45796 3.538593 4.275373-0.99977 9.013281-4.096295 14.21577-9.29776 11.4334-11.4334 17.350157-20.47124 17.754363-27.111474 0.319272-6.715959-1.684362-20.47124-5.997598-41.266869-4.241604-20.871353-6.520507-35.226293-6.839779-43.064818-0.319272-7.835456 1.497097-16.414855 5.456269-25.728988 3.960195-9.31925 11.097756-19.136849 21.415752-29.450752 14.875802-14.878872 27.647687-23.853267 38.328957-26.933419 10.67513-3.079128 22.190395-2.317789 34.549887 2.279926 12.351306 4.598738 24.52865 12.891611 36.524868 24.8909 13.117762 13.116739 22.176069 26.41358 27.174919 39.888476 4.997827 13.478989 5.776563 24.933879 2.339278 34.371832-3.442402 9.438976-12.880355 21.871123-28.310789 37.306674l-7.677866 7.676843-46.90631-46.902216 14.396895-14.397918c6.716982-6.715959 10.391674-11.595083 11.034311-14.636349 0.641613-3.037173-0.437975-5.958712-3.237741-8.758478-3.041266-3.037173-6.579859-4.095271-10.619872-3.173273-4.041036 0.923022-8.579399 3.900843-13.624299 8.945743-6.481621 6.481621-10.488889 12.236696-12.015661 17.272385-1.608637 4.955872-0.809435 13.675464 2.39863 26.146497 9.136078 35.82595 12.348236 60.937884 9.630335 75.331709-2.723018 14.393825-13.598716 31.109532-32.633235 50.143027C348.397387 465.785445 336.58127 474.360751 326.78516 477.67831L326.78516 477.67831zM392.972605 582.015633l32.199353-37.618782-18.064424-18.064424-37.945217 31.870872-52.215222-52.215222 219.983203-168.456666 72.996524 72.996524L444.589193 633.630175 392.972605 582.015633 392.972605 582.015633zM534.378172 723.4212 453.164498 642.209574l194.219423-194.220447 50.504254 50.505277L542.535969 653.842519l30.710442 30.709419L534.378172 723.4212 534.378172 723.4212zM634.188388 823.231417l-87.573521-87.573521 194.216353-194.216353 84.212984 84.214007-38.867216 38.868239-33.707706-33.708729-36.82572 36.82572 31.547507 31.552623-36.945447 36.945447-31.552623-31.547507-42.703591 42.703591 37.064151 37.069267L634.188388 823.231417 634.188388 823.231417zM63.528384 559.228651" fill="#2c2c2c" p-id="13357"></path></svg>