<?xml version="1.0" standalone="no"?><!DOCTYPE svg PUBLIC "-//W3C//DTD SVG 1.1//EN" "http://www.w3.org/Graphics/SVG/1.1/DTD/svg11.dtd"><svg t="1764660861040" class="icon" viewBox="0 0 1024 1024" version="1.1" xmlns="http://www.w3.org/2000/svg" p-id="11358" xmlns:xlink="http://www.w3.org/1999/xlink" width="200" height="200"><path d="M0 0h1024v1024H0z" fill="#ffffff" fill-opacity="0" p-id="11359"></path><path d="M915.8656 124.1088a45.4656 45.4656 0 0 1 0 65.3056L565.9904 528.4608a48.384 48.384 0 0 1-67.456 0 45.4656 45.4656 0 0 1 0-65.3312L848.4608 124.1088a48.384 48.384 0 0 1 67.4304 0h-0.0256z" fill="#ffffff" p-id="11360"></path><path d="M432.5376 97.536c0 24.0384-18.8928 43.776-43.0848 46.0032l-4.608 0.2048H187.392c-21.12 0-38.5024 15.616-40.6272 35.5584l-0.1792 4.0192v654.592c0 20.5056 16.0512 37.376 36.6592 39.424l4.1728 0.1792h649.216c21.1456 0 38.528-15.5648 40.6528-35.5328l0.1792-4.0448v-216.9344c0-25.5232 21.376-46.208 47.6928-46.208 24.7808 0 45.1328 18.3296 47.4368 41.728l0.2304 4.48v216.9344c0 70.7328-57.4464 128.4608-129.5872 131.7888l-6.5792 0.1536H187.3664c-72.96 0-132.5824-55.6544-136.0128-125.5424L51.2 837.9392V183.296c0-70.7072 57.4464-128.4352 129.5872-131.7888l6.5792-0.1792h197.4784c26.368 0 47.6928 20.6848 47.6928 46.1824z m540.1088 23.7056l0.1536 4.9152v263.9104c0 25.4976-21.3248 46.1824-47.6672 46.1824-24.7808 0-45.1584-18.304-47.4624-41.728l-0.2304-4.4544V143.744h-254.208c-24.7296 0-45.1072-18.3296-47.4112-41.728l-0.2304-4.48c0-23.9616 18.8928-43.6992 43.0848-45.952l4.608-0.2304h272.384c40.8576 0 74.3424 30.8736 76.9792 69.888z" fill="#ffffff" p-id="11361"></path></svg>