<?xml version="1.0" standalone="no"?><!DOCTYPE svg PUBLIC "-//W3C//DTD SVG 1.1//EN" "http://www.w3.org/Graphics/SVG/1.1/DTD/svg11.dtd"><svg t="1765956739570" class="icon" viewBox="0 0 1025 1024" version="1.1" xmlns="http://www.w3.org/2000/svg" p-id="23196" xmlns:xlink="http://www.w3.org/1999/xlink" width="200.1953125" height="200"><path d="M762.0608 109.84448c145.3568 0 263.168 117.82144 263.168 263.168v381.02016c0 86.03648-67.33824 156.33408-152.18688 161.08544l-9.15456 0.256H709.72416c-4.608 0-9.0624-1.7408-12.45184-4.88448L518.81984 745.09312a9.131008 9.131008 0 0 0-12.43136 0l-178.7904 165.41696a18.40128 18.40128 0 0 1-9.02144 4.5568l-3.40992 0.31744h-154.0096C72.16128 915.38432 0 843.23328 0 754.21696V373.02272c0-145.3568 117.82144-263.168 263.168-263.168H762.0608z m-11.44832 210.5344H274.61632c-111.21664 0-201.39008 90.1632-201.39008 201.39008v232.448c0 48.56832 39.3728 87.93088 87.93088 87.93088h132.47488l163.00032-150.90688c31.60064-29.25568 80.41472-29.2352 111.99488 0.04096l162.65216 150.86592h132.59776c48.66048 0 88.10496-39.43424 88.10496-88.10496V521.76896c0.02048-111.22688-90.15296-201.39008-201.3696-201.39008z m-457.68704 73.23648c80.88576 0 146.46272 65.57696 146.46272 146.46272s-65.57696 146.46272-146.46272 146.46272-146.46272-65.57696-146.46272-146.46272 65.57696-146.46272 146.46272-146.46272z m439.37792 0c80.88576 0 146.46272 65.57696 146.46272 146.46272s-65.57696 146.46272-146.46272 146.46272-146.46272-65.57696-146.46272-146.46272c0.01024-80.88576 65.57696-146.46272 146.46272-146.46272z m-439.37792 64.07168c-45.49632 0-82.39104 36.89472-82.39104 82.39104 0 45.49632 36.89472 82.3808 82.39104 82.3808 45.49632 0 82.3808-36.88448 82.3808-82.3808s-36.88448-82.39104-82.3808-82.39104z m439.37792 0c-45.49632 0-82.39104 36.89472-82.39104 82.39104 0 45.49632 36.89472 82.3808 82.39104 82.3808s82.39104-36.88448 82.39104-82.3808-36.89472-82.39104-82.39104-82.39104zM762.0608 183.08096H263.168c-90.0608 0-165.48864 62.67904-185.01632 146.80064 49.89952-51.05664 119.48032-82.72896 196.46464-82.72896h475.99616c76.98432 0 146.56512 31.67232 196.41344 82.70848C927.54944 245.76 852.1216 183.08096 762.0608 183.08096z m0 0" fill="#2c2c2c" p-id="23197"></path></svg>